<?xml version="1.0" standalone="no"?>
<!DOCTYPE svg PUBLIC "-//W3C//DTD SVG 20010904//EN"
 "http://www.w3.org/TR/2001/REC-SVG-20010904/DTD/svg10.dtd">
<svg version="1.0" xmlns="http://www.w3.org/2000/svg"
 width="980.000000pt" height="784.000000pt" viewBox="0 0 980.000000 784.000000"
 preserveAspectRatio="xMidYMid meet">
<metadata>
Created by potrace 1.16, written by Peter Selinger 2001-2019
</metadata>
<g transform="translate(0.000000,784.000000) scale(0.100000,-0.100000)"
fill="#000000" stroke="none">
<path d="M3930 7824 c-923 -51 -1434 -170 -1715 -400 -146 -119 -368 -450
-562 -839 -170 -338 -279 -636 -398 -1080 -27 -99 -51 -184 -55 -188 -4 -4
-37 39 -75 95 -174 262 -342 405 -521 443 -82 17 -300 20 -376 4 -108 -22
-170 -80 -203 -189 -34 -111 -30 -449 7 -572 17 -60 99 -140 158 -157 28 -7
173 -16 375 -22 182 -5 375 -13 430 -17 l100 -7 -100 -105 c-200 -211 -334
-397 -439 -614 -95 -194 -152 -371 -192 -591 -62 -347 17 -1519 132 -1965 51
-197 138 -416 200 -507 42 -61 121 -123 209 -164 l63 -30 6 -82 c3 -45 8 -165
11 -267 7 -197 17 -307 36 -371 28 -93 131 -161 271 -179 95 -12 581 -12 676
0 132 17 231 78 266 162 20 47 33 175 41 398 4 96 8 176 9 178 2 1 234 -11
517 -28 706 -42 1381 -54 2509 -46 498 3 1004 10 1125 16 214 9 838 44 1001
55 l81 6 6 -224 c4 -122 11 -248 18 -277 22 -110 79 -170 208 -222 55 -22 65
-23 416 -23 400 0 425 3 521 67 58 39 89 91 103 173 14 76 31 353 32 510 0 66
3 128 7 137 4 9 43 35 88 57 116 58 173 119 240 256 151 309 222 676 279 1435
58 762 16 1097 -190 1515 -115 234 -243 416 -443 628 l-97 102 60 6 c33 4 132
7 220 8 233 2 563 19 615 31 91 22 158 103 181 218 22 104 18 420 -5 497 -28
96 -68 150 -134 182 -56 27 -61 28 -232 28 -197 -1 -258 -12 -370 -71 -131
-68 -219 -159 -353 -361 -44 -68 -83 -123 -86 -123 -3 0 -24 66 -45 148 -187
706 -398 1189 -737 1687 -196 288 -377 418 -714 514 -258 73 -696 134 -1091
151 -219 10 -1949 21 -2084 14z m1860 -614 c747 -40 1390 -165 1543 -300 85
-75 374 -651 513 -1022 80 -213 214 -683 214 -748 l0 -30 -102 0 c-57 0 -222
9 -368 20 -976 72 -1601 94 -2655 94 -805 0 -1139 -7 -1805 -39 -533 -26
-1273 -76 -1357 -91 -42 -8 -48 7 -33 83 36 172 159 572 247 803 100 261 355
776 440 888 57 76 163 124 408 187 343 88 829 146 1370 165 305 10 1331 4
1585 -10z m-3737 -3116 c40 -8 119 -38 176 -66 87 -42 116 -62 180 -126 128
-129 177 -255 188 -482 5 -116 4 -130 -20 -201 -81 -239 -281 -427 -507 -475
-107 -23 -268 -14 -377 21 -198 62 -358 223 -430 434 -38 109 -44 285 -13 397
35 127 82 207 184 310 74 74 107 98 177 132 142 70 292 89 442 56z m5984 -4
c132 -31 234 -89 329 -184 91 -91 130 -155 169 -271 92 -273 -6 -594 -232
-764 -127 -95 -225 -129 -393 -138 -183 -9 -311 32 -453 147 -127 102 -214
233 -242 367 -19 89 -19 270 0 352 9 36 35 101 58 144 146 274 465 419 764
347z m-1735 -1359 c122 -10 158 -26 203 -91 80 -116 20 -255 -215 -492 -120
-121 -128 -127 -194 -147 -126 -39 -253 -42 -1281 -38 -890 3 -987 5 -1055 21
-41 10 -93 28 -115 41 -53 30 -260 244 -314 323 -75 111 -88 181 -47 267 41
88 75 103 264 114 173 11 2620 12 2754 2z"/>
</g>
</svg>
