<?xml version="1.0" standalone="no"?>
<!DOCTYPE svg PUBLIC "-//W3C//DTD SVG 20010904//EN"
 "http://www.w3.org/TR/2001/REC-SVG-20010904/DTD/svg10.dtd">
<svg version="1.0" xmlns="http://www.w3.org/2000/svg"
 width="752.000000pt" height="1024.000000pt" viewBox="0 0 752.000000 1024.000000"
 preserveAspectRatio="xMidYMid meet">
<metadata>
Created by potrace 1.16, written by Peter Selinger 2001-2019
</metadata>
<g transform="translate(0.000000,1024.000000) scale(0.100000,-0.100000)"
fill="#000000" stroke="none">
<path d="M3420 10179 c-893 -76 -1700 -457 -2320 -1095 -529 -545 -851 -1216
-957 -1999 -26 -189 -25 -894 0 -1105 120 -978 560 -1922 1521 -3265 239 -334
1206 -1615 1340 -1775 106 -127 225 -259 473 -526 123 -133 236 -258 252 -278
l30 -37 379 448 c358 424 517 624 903 1138 786 1047 1310 1857 1683 2602 709
1418 858 2616 449 3613 -95 231 -268 528 -430 735 -106 136 -389 450 -505 560
-684 647 -1591 1001 -2547 994 -97 -1 -219 -5 -271 -10z m568 -1935 c502 -74
962 -378 1234 -816 196 -316 288 -663 275 -1043 -12 -353 -117 -675 -320 -974
-90 -133 -302 -348 -437 -444 -115 -82 -341 -195 -470 -237 -521 -167 -1056
-90 -1520 217 -159 106 -365 312 -472 473 -88 132 -183 322 -227 458 -100 302
-118 653 -49 971 47 221 163 483 296 671 80 113 276 314 387 396 227 167 508
286 782 328 123 20 391 20 521 0z"/>
</g>
</svg>
