<?xml version="1.0" encoding="utf-8"?>
<!-- Svg Vector Icons : http://www.onlinewebfonts.com/icon -->
<!DOCTYPE svg PUBLIC "-//W3C//DTD SVG 1.1//EN" "http://www.w3.org/Graphics/SVG/1.1/DTD/svg11.dtd">
<svg version="1.1" xmlns="http://www.w3.org/2000/svg" xmlns:xlink="http://www.w3.org/1999/xlink" x="0px" y="0px" viewBox="0 0 1000 1000" enable-background="new 0 0 1000 1000" xml:space="preserve">
<metadata> Svg Vector Icons : http://www.onlinewebfonts.com/icon </metadata>
<g><g transform="matrix(1 0 0 -1 0 1920)"><path d="M565.3,1729.7c-12.1,0-23.8,2.4-35,7.1c-11.2,4.7-20.8,11.1-28.9,19.2c-8,8-14.4,17.7-19.2,28.9c-4.7,11.2-7.1,22.9-7.1,35c0,24.8,8.8,46,26.5,63.7s38.9,26.5,63.7,26.5c12.1,0,23.8-2.4,35-7.1c11.2-4.7,20.8-11.1,28.9-19.2s14.4-17.7,19.2-28.9c4.7-11.2,7.1-22.9,7.1-35c0-24.8-8.8-46-26.5-63.7S590,1729.7,565.3,1729.7z M287.2,930h-34.8c-33.5,26.4-54.2,43.5-62.1,51.4c-4.2,4.2-6.3,8.8-6.3,13.8c0,6.3,3.3,13.4,9.9,21.4l69.2,138.8l89.8,238.9l53.4,171.6l-80.3-56.2l-79.1-124.2c-6.6-10.3-16-15.4-28.1-15.4h-9.5c-4.5,0-8.1,1.1-10.9,3.2s-4.2,4.9-4.2,8.3c0,1.6,0.3,3.3,0.8,5.1l71.2,167.3c2.6,8.4,5.5,13.7,8.7,15.8L453.7,1702c14,9.8,29.3,14.6,45.9,14.6c6.1,0,12-0.7,17.8-2c21.4-5,37.7-17,49-36l103.6-164.9l103.6-98.5c5-5,7.5-10.5,7.5-16.6c0-3.4-1.2-6.7-3.6-9.9c-4.5-6.1-10.4-9.1-17.8-9.1l-7.1,1.2c-89.1,55.1-134.6,83.7-136.4,85.8l-56.9,73.6L524.9,1367c97.3-93.1,148.2-141.6,152.7-145.5c11.1-9.2,17.4-18.3,19-27.3l36-204.9l66.4-12.7c2.4-0.5,4.7-1.6,6.9-3.2s4.1-3.4,5.5-5.5c1.4-2.1,2.6-4.5,3.4-7.1c0.8-2.6,1.2-5.3,1.2-7.9c0-5.5-2.3-10.4-6.9-14.6c-4.6-4.2-9.7-6.3-15.2-6.3l-117.5,0.4c-3.4,0-6.7,0.9-9.7,2.6c-3,1.7-5.5,4-7.3,6.9c-1.8,2.9-2.9,6.2-3.2,9.9l-0.8,17.8L602,1142.8l-158.6,130.1l-81.9-135.3l-106.8-132.1l13.8-26.9l23.7-4c5-1.1,9.1-3.9,12.3-8.5c3.2-4.6,4.7-9.7,4.7-15.2c0-5.3-2.3-10.1-6.9-14.4C297.8,932.2,292.8,930,287.2,930z"/></g></g>
</svg>